<?xml version="1.0" encoding="utf-8"?>
<!-- Generator: Adobe Illustrator 15.1.0, SVG Export Plug-In . SVG Version: 6.00 Build 0)  -->
<!DOCTYPE svg PUBLIC "-//W3C//DTD SVG 1.1//EN" "http://www.w3.org/Graphics/SVG/1.1/DTD/svg11.dtd">
<svg version="1.1" id="レイヤー_1" xmlns="http://www.w3.org/2000/svg" xmlns:xlink="http://www.w3.org/1999/xlink" x="0px"
	 y="0px" width="120px" height="36px" viewBox="0 0 120 36" enable-background="new 0 0 120 36" xml:space="preserve">
<g>
	<path fill="#2B3137" d="M83.175,84.403V72.12c0-0.607,0.058-3.244,0.058-5.186h-0.058l-5.852,17.469h-2.781L68.69,66.964h-0.058
		c0,1.912,0.058,4.549,0.058,5.156v12.283h-2.723v-20.8h4.027l5.938,17.584h0.058l5.91-17.584h3.998v20.8H83.175z"/>
	<path fill="#2B3137" d="M99.338,69.252h2.81c-1.767,4.954-3.505,9.908-5.446,14.862c-2.405,6.142-2.666,6.489-5.939,6.489
		c-0.376,0-0.666-0.116-1.072-0.232v-2.316c0.319,0.115,0.84,0.26,1.536,0.26c1.333,0,1.477-0.376,2.694-3.505l-5.621-15.558h2.897
		l4.026,12.342h0.058L99.338,69.252z"/>
	<path fill="#2B3137" d="M119.355,84.403H116.4l-5.417-20.8h3.042l3.882,16.919h0.058l4.664-16.919h3.071l4.665,16.919h0.058
		l3.882-16.919h3.101l-5.477,20.8h-2.954l-4.751-17.236h-0.058L119.355,84.403z"/>
	<path fill="#2B3137" d="M145.92,68.818c4.836,0,7.037,4.085,7.037,7.996c0,3.91-2.201,7.995-7.037,7.995
		c-4.838,0-7.041-4.085-7.041-7.995C138.879,72.903,141.082,68.818,145.92,68.818z M145.92,82.607c3.648,0,4.402-3.766,4.402-5.793
		c0-2.028-0.754-5.794-4.402-5.794c-3.65,0-4.404,3.766-4.404,5.794C141.516,78.842,142.27,82.607,145.92,82.607z"/>
	<path fill="#2B3137" d="M158.752,84.403h-2.551V69.252h2.404v2.521h0.059c1.014-1.767,2.348-2.954,4.258-2.954
		c0.318,0,0.465,0.029,0.668,0.086v2.638h-0.957c-2.375,0-3.881,1.854-3.881,4.055V84.403z"/>
	<path fill="#2B3137" d="M178.131,84.403h-3.273l-4.721-7.647l-2.115,1.912v5.735h-2.463v-20.8h2.463v12.052l6.518-6.403h3.244
		l-5.793,5.649L178.131,84.403z"/>
	<path fill="#2B3137" d="M188.588,73.569c-0.027-0.956-0.375-2.549-3.592-2.549c-0.781,0-3.012,0.26-3.012,2.143
		c0,1.246,0.781,1.535,2.752,2.028l2.549,0.638c3.158,0.782,4.258,1.94,4.258,3.997c0,3.129-2.576,5.013-5.996,5.013
		c-5.996,0-6.432-3.477-6.518-5.303h2.463c0.086,1.188,0.434,3.101,4.025,3.101c1.826,0,3.477-0.725,3.477-2.404
		c0-1.218-0.84-1.623-3.014-2.173l-2.953-0.724c-2.115-0.521-3.506-1.595-3.506-3.68c0-3.332,2.752-4.838,5.736-4.838
		c5.418,0,5.793,3.997,5.793,4.751H188.588z"/>
</g>
<text transform="matrix(1 0 0 1 -2.9995 -21.4878)"><tspan x="0" y="0" fill="#2B3137" font-family="'Helvetica'" font-size="31.8021" letter-spacing="1">M</tspan><tspan x="27.763" y="0" fill="#2B3137" font-family="'Helvetica'" font-size="31.8021">y Wo</tspan><tspan x="100.207" y="0" fill="#2B3137" font-family="'Helvetica'" font-size="31.8021" letter-spacing="1">r</tspan><tspan x="112.069" y="0" fill="#2B3137" font-family="'Helvetica'" font-size="31.8021">k</tspan><tspan x="128.606" y="0" fill="#2B3137" font-family="'Helvetica'" font-size="31.8021">s</tspan></text>
<path fill="#2B3137" d="M18.96,28.258V15.976c0-0.608,0.059-3.244,0.059-5.185H18.96l-5.852,17.466h-2.781L4.476,10.82H4.418
	c0,1.912,0.058,4.548,0.058,5.156v12.282H1.753V7.458h4.026l5.939,17.584h0.058l5.91-17.584h3.998v20.799H18.96z"/>
<path fill="#2B3137" d="M36.286,13.108h2.81c-1.767,4.953-3.505,9.908-5.446,14.861c-2.405,6.143-2.665,6.49-5.939,6.49
	c-0.376,0-0.666-0.117-1.072-0.232V31.91c0.319,0.115,0.84,0.26,1.536,0.26c1.333,0,1.477-0.377,2.694-3.506l-5.621-15.556h2.897
	l4.027,12.341h0.058L36.286,13.108z"/>
<path fill="#2B3137" d="M58.305,28.258h-2.955L49.933,7.458h3.042l3.882,16.918h0.058l4.664-16.918h3.07l4.665,16.918h0.058
	l3.882-16.918h3.1l-5.476,20.799h-2.955l-4.751-17.236h-0.058L58.305,28.258z"/>
<path fill="#2B3137" d="M84.872,12.673c4.838,0,7.04,4.084,7.04,7.995c0,3.912-2.202,7.996-7.04,7.996s-7.04-4.084-7.04-7.996
	C77.833,16.758,80.034,12.673,84.872,12.673z M84.872,26.463c3.65,0,4.403-3.766,4.403-5.795c0-2.027-0.753-5.793-4.403-5.793
	s-4.403,3.766-4.403,5.793C80.469,22.697,81.222,26.463,84.872,26.463z"/>
<path fill="#2B3137" d="M97.707,28.258h-2.549v-15.15h2.404v2.521h0.058c1.014-1.769,2.346-2.956,4.259-2.956
	c0.318,0,0.463,0.028,0.666,0.088v2.635h-0.956c-2.375,0-3.882,1.854-3.882,4.057V28.258z"/>
<path fill="#2B3137" d="M118.247,28.258h-3.273l-4.723-7.646l-2.114,1.912v5.734h-2.463V7.458h2.463V19.51l6.519-6.402h3.244
	l-5.794,5.65L118.247,28.258z"/>
</svg>
